<?xml version="1.0" encoding="utf-8" standalone="no"?>
<!DOCTYPE svg PUBLIC "-//W3C//DTD SVG 1.1//EN"
  "http://www.w3.org/Graphics/SVG/1.1/DTD/svg11.dtd">
<svg xmlns:xlink="http://www.w3.org/1999/xlink" width="460.8pt" height="345.6pt" viewBox="0 0 460.8 345.6" xmlns="http://www.w3.org/2000/svg" version="1.1">
 <metadata>
  <rdf:RDF xmlns:dc="http://purl.org/dc/elements/1.1/" xmlns:cc="http://creativecommons.org/ns#" xmlns:rdf="http://www.w3.org/1999/02/22-rdf-syntax-ns#">
   <cc:Work>
    <dc:type rdf:resource="http://purl.org/dc/dcmitype/StillImage"/>
    <dc:date>2023-06-16T17:08:10.942758</dc:date>
    <dc:format>image/svg+xml</dc:format>
    <dc:creator>
     <cc:Agent>
      <dc:title>Matplotlib v3.5.3, https://matplotlib.org/</dc:title>
     </cc:Agent>
    </dc:creator>
   </cc:Work>
  </rdf:RDF>
 </metadata>
 <defs>
  <style type="text/css">*{stroke-linejoin: round; stroke-linecap: butt}</style>
 </defs>
 <g id="figure_1">
  <g id="patch_1">
   <path d="M 0 345.6 
L 460.8 345.6 
L 460.8 0 
L 0 0 
z
" style="fill: #ffffff"/>
  </g>
  <g id="axes_1">
   <g id="patch_2">
    <path d="M 57.6 307.584 
L 414.72 307.584 
L 414.72 41.472 
L 57.6 41.472 
z
" style="fill: #ffffff"/>
   </g>
   <g id="patch_3">
    <path d="M 73.832727 307.584 
L 90.270932 307.584 
L 90.270932 250.885091 
L 73.832727 250.885091 
z
" clip-path="url(#p8ffc304c90)" style="fill: #1f77b4"/>
   </g>
   <g id="patch_4">
    <path d="M 94.380483 307.584 
L 110.818688 307.584 
L 110.818688 250.889324 
L 94.380483 250.889324 
z
" clip-path="url(#p8ffc304c90)" style="fill: #1f77b4"/>
   </g>
   <g id="patch_5">
    <path d="M 114.928239 307.584 
L 131.366444 307.584 
L 131.366444 250.888114 
L 114.928239 250.888114 
z
" clip-path="url(#p8ffc304c90)" style="fill: #1f77b4"/>
   </g>
   <g id="patch_6">
    <path d="M 135.475995 307.584 
L 151.9142 307.584 
L 151.9142 250.888719 
L 135.475995 250.888719 
z
" clip-path="url(#p8ffc304c90)" style="fill: #1f77b4"/>
   </g>
   <g id="patch_7">
    <path d="M 156.023751 307.584 
L 172.461956 307.584 
L 172.461956 250.888719 
L 156.023751 250.888719 
z
" clip-path="url(#p8ffc304c90)" style="fill: #1f77b4"/>
   </g>
   <g id="patch_8">
    <path d="M 176.571507 307.584 
L 193.009712 307.584 
L 193.009712 250.889626 
L 176.571507 250.889626 
z
" clip-path="url(#p8ffc304c90)" style="fill: #1f77b4"/>
   </g>
   <g id="patch_9">
    <path d="M 197.119264 307.584 
L 213.557468 307.584 
L 213.557468 250.889929 
L 197.119264 250.889929 
z
" clip-path="url(#p8ffc304c90)" style="fill: #1f77b4"/>
   </g>
   <g id="patch_10">
    <path d="M 217.66702 307.584 
L 234.105224 307.584 
L 234.105224 250.888114 
L 217.66702 250.888114 
z
" clip-path="url(#p8ffc304c90)" style="fill: #1f77b4"/>
   </g>
   <g id="patch_11">
    <path d="M 238.214776 307.584 
L 254.65298 307.584 
L 254.65298 250.888114 
L 238.214776 250.888114 
z
" clip-path="url(#p8ffc304c90)" style="fill: #1f77b4"/>
   </g>
   <g id="patch_12">
    <path d="M 258.762532 307.584 
L 275.200736 307.584 
L 275.200736 250.889626 
L 258.762532 250.889626 
z
" clip-path="url(#p8ffc304c90)" style="fill: #1f77b4"/>
   </g>
   <g id="patch_13">
    <path d="M 279.310288 307.584 
L 295.748493 307.584 
L 295.748493 250.888719 
L 279.310288 250.888719 
z
" clip-path="url(#p8ffc304c90)" style="fill: #1f77b4"/>
   </g>
   <g id="patch_14">
    <path d="M 299.858044 307.584 
L 316.296249 307.584 
L 316.296249 250.889324 
L 299.858044 250.889324 
z
" clip-path="url(#p8ffc304c90)" style="fill: #1f77b4"/>
   </g>
   <g id="patch_15">
    <path d="M 320.4058 307.584 
L 336.844005 307.584 
L 336.844005 250.888719 
L 320.4058 250.888719 
z
" clip-path="url(#p8ffc304c90)" style="fill: #1f77b4"/>
   </g>
   <g id="patch_16">
    <path d="M 340.953556 307.584 
L 357.391761 307.584 
L 357.391761 250.889626 
L 340.953556 250.889626 
z
" clip-path="url(#p8ffc304c90)" style="fill: #1f77b4"/>
   </g>
   <g id="patch_17">
    <path d="M 361.501312 307.584 
L 377.939517 307.584 
L 377.939517 250.889022 
L 361.501312 250.889022 
z
" clip-path="url(#p8ffc304c90)" style="fill: #1f77b4"/>
   </g>
   <g id="patch_18">
    <path d="M 382.049068 307.584 
L 398.487273 307.584 
L 398.487273 250.888719 
L 382.049068 250.888719 
z
" clip-path="url(#p8ffc304c90)" style="fill: #1f77b4"/>
   </g>
   <g id="patch_19">
    <path d="M 73.832727 307.584 
L 90.270932 307.584 
L 90.270932 140.702121 
L 73.832727 140.702121 
z
" clip-path="url(#p8ffc304c90)" style="fill: #ff7f0e"/>
   </g>
   <g id="patch_20">
    <path d="M 94.380483 307.584 
L 110.818688 307.584 
L 110.818688 233.891021 
L 94.380483 233.891021 
z
" clip-path="url(#p8ffc304c90)" style="fill: #ff7f0e"/>
   </g>
   <g id="patch_21">
    <path d="M 114.928239 307.584 
L 131.366444 307.584 
L 131.366444 306.567718 
L 114.928239 306.567718 
z
" clip-path="url(#p8ffc304c90)" style="fill: #ff7f0e"/>
   </g>
   <g id="patch_22">
    <path d="M 135.475995 307.584 
L 151.9142 307.584 
L 151.9142 230.505027 
L 135.475995 230.505027 
z
" clip-path="url(#p8ffc304c90)" style="fill: #ff7f0e"/>
   </g>
   <g id="patch_23">
    <path d="M 156.023751 307.584 
L 172.461956 307.584 
L 172.461956 305.296232 
L 156.023751 305.296232 
z
" clip-path="url(#p8ffc304c90)" style="fill: #ff7f0e"/>
   </g>
   <g id="patch_24">
    <path d="M 176.571507 307.584 
L 193.009712 307.584 
L 193.009712 175.448618 
L 176.571507 175.448618 
z
" clip-path="url(#p8ffc304c90)" style="fill: #ff7f0e"/>
   </g>
   <g id="patch_25">
    <path d="M 197.119264 307.584 
L 213.557468 307.584 
L 213.557468 176.710428 
L 197.119264 176.710428 
z
" clip-path="url(#p8ffc304c90)" style="fill: #ff7f0e"/>
   </g>
   <g id="patch_26">
    <path d="M 217.66702 307.584 
L 234.105224 307.584 
L 234.105224 306.512686 
L 217.66702 306.512686 
z
" clip-path="url(#p8ffc304c90)" style="fill: #ff7f0e"/>
   </g>
   <g id="patch_27">
    <path d="M 238.214776 307.584 
L 254.65298 307.584 
L 254.65298 263.866042 
L 238.214776 263.866042 
z
" clip-path="url(#p8ffc304c90)" style="fill: #ff7f0e"/>
   </g>
   <g id="patch_28">
    <path d="M 258.762532 307.584 
L 275.200736 307.584 
L 275.200736 303.791615 
L 258.762532 303.791615 
z
" clip-path="url(#p8ffc304c90)" style="fill: #ff7f0e"/>
   </g>
   <g id="patch_29">
    <path d="M 279.310288 307.584 
L 295.748493 307.584 
L 295.748493 92.397742 
L 279.310288 92.397742 
z
" clip-path="url(#p8ffc304c90)" style="fill: #ff7f0e"/>
   </g>
   <g id="patch_30">
    <path d="M 299.858044 307.584 
L 316.296249 307.584 
L 316.296249 307.303396 
L 299.858044 307.303396 
z
" clip-path="url(#p8ffc304c90)" style="fill: #ff7f0e"/>
   </g>
   <g id="patch_31">
    <path d="M 320.4058 307.584 
L 336.844005 307.584 
L 336.844005 256.721832 
L 320.4058 256.721832 
z
" clip-path="url(#p8ffc304c90)" style="fill: #ff7f0e"/>
   </g>
   <g id="patch_32">
    <path d="M 340.953556 307.584 
L 357.391761 307.584 
L 357.391761 303.817921 
L 340.953556 303.817921 
z
" clip-path="url(#p8ffc304c90)" style="fill: #ff7f0e"/>
   </g>
   <g id="patch_33">
    <path d="M 361.501312 307.584 
L 377.939517 307.584 
L 377.939517 304.683318 
L 361.501312 304.683318 
z
" clip-path="url(#p8ffc304c90)" style="fill: #ff7f0e"/>
   </g>
   <g id="patch_34">
    <path d="M 382.049068 307.584 
L 398.487273 307.584 
L 398.487273 306.003184 
L 382.049068 306.003184 
z
" clip-path="url(#p8ffc304c90)" style="fill: #ff7f0e"/>
   </g>
   <g id="patch_35">
    <path d="M 73.832727 307.584 
L 90.270932 307.584 
L 90.270932 250.878741 
L 73.832727 250.878741 
z
" clip-path="url(#p8ffc304c90)" style="fill: #2ca02c"/>
   </g>
   <g id="patch_36">
    <path d="M 94.380483 307.584 
L 110.818688 307.584 
L 110.818688 250.891441 
L 94.380483 250.891441 
z
" clip-path="url(#p8ffc304c90)" style="fill: #2ca02c"/>
   </g>
   <g id="patch_37">
    <path d="M 114.928239 307.584 
L 131.366444 307.584 
L 131.366444 250.888114 
L 114.928239 250.888114 
z
" clip-path="url(#p8ffc304c90)" style="fill: #2ca02c"/>
   </g>
   <g id="patch_38">
    <path d="M 135.475995 307.584 
L 151.9142 307.584 
L 151.9142 250.889626 
L 135.475995 250.889626 
z
" clip-path="url(#p8ffc304c90)" style="fill: #2ca02c"/>
   </g>
   <g id="patch_39">
    <path d="M 156.023751 307.584 
L 172.461956 307.584 
L 172.461956 250.887812 
L 156.023751 250.887812 
z
" clip-path="url(#p8ffc304c90)" style="fill: #2ca02c"/>
   </g>
   <g id="patch_40">
    <path d="M 176.571507 307.584 
L 193.009712 307.584 
L 193.009712 250.890231 
L 176.571507 250.890231 
z
" clip-path="url(#p8ffc304c90)" style="fill: #2ca02c"/>
   </g>
   <g id="patch_41">
    <path d="M 197.119264 307.584 
L 213.557468 307.584 
L 213.557468 250.890533 
L 197.119264 250.890533 
z
" clip-path="url(#p8ffc304c90)" style="fill: #2ca02c"/>
   </g>
   <g id="patch_42">
    <path d="M 217.66702 307.584 
L 234.105224 307.584 
L 234.105224 250.889626 
L 217.66702 250.889626 
z
" clip-path="url(#p8ffc304c90)" style="fill: #2ca02c"/>
   </g>
   <g id="patch_43">
    <path d="M 238.214776 307.584 
L 254.65298 307.584 
L 254.65298 250.890533 
L 238.214776 250.890533 
z
" clip-path="url(#p8ffc304c90)" style="fill: #2ca02c"/>
   </g>
   <g id="patch_44">
    <path d="M 258.762532 307.584 
L 275.200736 307.584 
L 275.200736 250.890533 
L 258.762532 250.890533 
z
" clip-path="url(#p8ffc304c90)" style="fill: #2ca02c"/>
   </g>
   <g id="patch_45">
    <path d="M 279.310288 307.584 
L 295.748493 307.584 
L 295.748493 250.88751 
L 279.310288 250.88751 
z
" clip-path="url(#p8ffc304c90)" style="fill: #2ca02c"/>
   </g>
   <g id="patch_46">
    <path d="M 299.858044 307.584 
L 316.296249 307.584 
L 316.296249 250.888719 
L 299.858044 250.888719 
z
" clip-path="url(#p8ffc304c90)" style="fill: #2ca02c"/>
   </g>
   <g id="patch_47">
    <path d="M 320.4058 307.584 
L 336.844005 307.584 
L 336.844005 250.889022 
L 320.4058 250.889022 
z
" clip-path="url(#p8ffc304c90)" style="fill: #2ca02c"/>
   </g>
   <g id="patch_48">
    <path d="M 340.953556 307.584 
L 357.391761 307.584 
L 357.391761 250.888417 
L 340.953556 250.888417 
z
" clip-path="url(#p8ffc304c90)" style="fill: #2ca02c"/>
   </g>
   <g id="patch_49">
    <path d="M 361.501312 307.584 
L 377.939517 307.584 
L 377.939517 250.889324 
L 361.501312 250.889324 
z
" clip-path="url(#p8ffc304c90)" style="fill: #2ca02c"/>
   </g>
   <g id="patch_50">
    <path d="M 382.049068 307.584 
L 398.487273 307.584 
L 398.487273 250.889324 
L 382.049068 250.889324 
z
" clip-path="url(#p8ffc304c90)" style="fill: #2ca02c"/>
   </g>
   <g id="patch_51">
    <path d="M 73.832727 307.584 
L 90.270932 307.584 
L 90.270932 250.874508 
L 73.832727 250.874508 
z
" clip-path="url(#p8ffc304c90)" style="fill: #d62728"/>
   </g>
   <g id="patch_52">
    <path d="M 94.380483 307.584 
L 110.818688 307.584 
L 110.818688 250.890231 
L 94.380483 250.890231 
z
" clip-path="url(#p8ffc304c90)" style="fill: #d62728"/>
   </g>
   <g id="patch_53">
    <path d="M 114.928239 307.584 
L 131.366444 307.584 
L 131.366444 250.890533 
L 114.928239 250.890533 
z
" clip-path="url(#p8ffc304c90)" style="fill: #d62728"/>
   </g>
   <g id="patch_54">
    <path d="M 135.475995 307.584 
L 151.9142 307.584 
L 151.9142 250.889929 
L 135.475995 250.889929 
z
" clip-path="url(#p8ffc304c90)" style="fill: #d62728"/>
   </g>
   <g id="patch_55">
    <path d="M 156.023751 307.584 
L 172.461956 307.584 
L 172.461956 250.891138 
L 156.023751 250.891138 
z
" clip-path="url(#p8ffc304c90)" style="fill: #d62728"/>
   </g>
   <g id="patch_56">
    <path d="M 176.571507 307.584 
L 193.009712 307.584 
L 193.009712 250.890836 
L 176.571507 250.890836 
z
" clip-path="url(#p8ffc304c90)" style="fill: #d62728"/>
   </g>
   <g id="patch_57">
    <path d="M 197.119264 307.584 
L 213.557468 307.584 
L 213.557468 250.889022 
L 197.119264 250.889022 
z
" clip-path="url(#p8ffc304c90)" style="fill: #d62728"/>
   </g>
   <g id="patch_58">
    <path d="M 217.66702 307.584 
L 234.105224 307.584 
L 234.105224 250.889324 
L 217.66702 250.889324 
z
" clip-path="url(#p8ffc304c90)" style="fill: #d62728"/>
   </g>
   <g id="patch_59">
    <path d="M 238.214776 307.584 
L 254.65298 307.584 
L 254.65298 250.889022 
L 238.214776 250.889022 
z
" clip-path="url(#p8ffc304c90)" style="fill: #d62728"/>
   </g>
   <g id="patch_60">
    <path d="M 258.762532 307.584 
L 275.200736 307.584 
L 275.200736 250.888719 
L 258.762532 250.888719 
z
" clip-path="url(#p8ffc304c90)" style="fill: #d62728"/>
   </g>
   <g id="patch_61">
    <path d="M 279.310288 307.584 
L 295.748493 307.584 
L 295.748493 250.889626 
L 279.310288 250.889626 
z
" clip-path="url(#p8ffc304c90)" style="fill: #d62728"/>
   </g>
   <g id="patch_62">
    <path d="M 299.858044 307.584 
L 316.296249 307.584 
L 316.296249 250.889626 
L 299.858044 250.889626 
z
" clip-path="url(#p8ffc304c90)" style="fill: #d62728"/>
   </g>
   <g id="patch_63">
    <path d="M 320.4058 307.584 
L 336.844005 307.584 
L 336.844005 250.889626 
L 320.4058 250.889626 
z
" clip-path="url(#p8ffc304c90)" style="fill: #d62728"/>
   </g>
   <g id="patch_64">
    <path d="M 340.953556 307.584 
L 357.391761 307.584 
L 357.391761 250.889022 
L 340.953556 250.889022 
z
" clip-path="url(#p8ffc304c90)" style="fill: #d62728"/>
   </g>
   <g id="patch_65">
    <path d="M 361.501312 307.584 
L 377.939517 307.584 
L 377.939517 250.889022 
L 361.501312 250.889022 
z
" clip-path="url(#p8ffc304c90)" style="fill: #d62728"/>
   </g>
   <g id="patch_66">
    <path d="M 382.049068 307.584 
L 398.487273 307.584 
L 398.487273 250.889324 
L 382.049068 250.889324 
z
" clip-path="url(#p8ffc304c90)" style="fill: #d62728"/>
   </g>
   <g id="patch_67">
    <path d="M 73.832727 307.584 
L 90.270932 307.584 
L 90.270932 285.264202 
L 73.832727 285.264202 
z
" clip-path="url(#p8ffc304c90)" style="fill: #9467bd"/>
   </g>
   <g id="patch_68">
    <path d="M 94.380483 307.584 
L 110.818688 307.584 
L 110.818688 300.311281 
L 94.380483 300.311281 
z
" clip-path="url(#p8ffc304c90)" style="fill: #9467bd"/>
   </g>
   <g id="patch_69">
    <path d="M 114.928239 307.584 
L 131.366444 307.584 
L 131.366444 191.463599 
L 114.928239 191.463599 
z
" clip-path="url(#p8ffc304c90)" style="fill: #9467bd"/>
   </g>
   <g id="patch_70">
    <path d="M 135.475995 307.584 
L 151.9142 307.584 
L 151.9142 77.853513 
L 135.475995 77.853513 
z
" clip-path="url(#p8ffc304c90)" style="fill: #9467bd"/>
   </g>
   <g id="patch_71">
    <path d="M 156.023751 307.584 
L 172.461956 307.584 
L 172.461956 297.255178 
L 156.023751 297.255178 
z
" clip-path="url(#p8ffc304c90)" style="fill: #9467bd"/>
   </g>
   <g id="patch_72">
    <path d="M 176.571507 307.584 
L 193.009712 307.584 
L 193.009712 54.144 
L 176.571507 54.144 
z
" clip-path="url(#p8ffc304c90)" style="fill: #9467bd"/>
   </g>
   <g id="patch_73">
    <path d="M 197.119264 307.584 
L 213.557468 307.584 
L 213.557468 307.252597 
L 197.119264 307.252597 
z
" clip-path="url(#p8ffc304c90)" style="fill: #9467bd"/>
   </g>
   <g id="patch_74">
    <path d="M 217.66702 307.584 
L 234.105224 307.584 
L 234.105224 298.494613 
L 217.66702 298.494613 
z
" clip-path="url(#p8ffc304c90)" style="fill: #9467bd"/>
   </g>
   <g id="patch_75">
    <path d="M 238.214776 307.584 
L 254.65298 307.584 
L 254.65298 298.397248 
L 238.214776 298.397248 
z
" clip-path="url(#p8ffc304c90)" style="fill: #9467bd"/>
   </g>
   <g id="patch_76">
    <path d="M 258.762532 307.584 
L 275.200736 307.584 
L 275.200736 307.082965 
L 258.762532 307.082965 
z
" clip-path="url(#p8ffc304c90)" style="fill: #9467bd"/>
   </g>
   <g id="patch_77">
    <path d="M 279.310288 307.584 
L 295.748493 307.584 
L 295.748493 209.381726 
L 279.310288 209.381726 
z
" clip-path="url(#p8ffc304c90)" style="fill: #9467bd"/>
   </g>
   <g id="patch_78">
    <path d="M 299.858044 307.584 
L 316.296249 307.584 
L 316.296249 306.682318 
L 299.858044 306.682318 
z
" clip-path="url(#p8ffc304c90)" style="fill: #9467bd"/>
   </g>
   <g id="patch_79">
    <path d="M 320.4058 307.584 
L 336.844005 307.584 
L 336.844005 299.838064 
L 320.4058 299.838064 
z
" clip-path="url(#p8ffc304c90)" style="fill: #9467bd"/>
   </g>
   <g id="patch_80">
    <path d="M 340.953556 307.584 
L 357.391761 307.584 
L 357.391761 168.67391 
L 340.953556 168.67391 
z
" clip-path="url(#p8ffc304c90)" style="fill: #9467bd"/>
   </g>
   <g id="patch_81">
    <path d="M 361.501312 307.584 
L 377.939517 307.584 
L 377.939517 305.587419 
L 361.501312 305.587419 
z
" clip-path="url(#p8ffc304c90)" style="fill: #9467bd"/>
   </g>
   <g id="patch_82">
    <path d="M 382.049068 307.584 
L 398.487273 307.584 
L 398.487273 306.536271 
L 382.049068 306.536271 
z
" clip-path="url(#p8ffc304c90)" style="fill: #9467bd"/>
   </g>
   <g id="matplotlib.axis_1">
    <g id="xtick_1">
     <g id="line2d_1">
      <defs>
       <path id="m2a5b30d690" d="M 0 0 
L 0 3.5 
" style="stroke: #000000; stroke-width: 0.8"/>
      </defs>
      <g>
       <use xlink:href="#m2a5b30d690" x="61.504074" y="307.584" style="stroke: #000000; stroke-width: 0.8"/>
      </g>
     </g>
     <g id="text_1">
      <!-- 0 -->
      <g transform="translate(58.322824 322.182437)scale(0.1 -0.1)">
       <defs>
        <path id="DejaVuSans-30" d="M 2034 4250 
Q 1547 4250 1301 3770 
Q 1056 3291 1056 2328 
Q 1056 1369 1301 889 
Q 1547 409 2034 409 
Q 2525 409 2770 889 
Q 3016 1369 3016 2328 
Q 3016 3291 2770 3770 
Q 2525 4250 2034 4250 
z
M 2034 4750 
Q 2819 4750 3233 4129 
Q 3647 3509 3647 2328 
Q 3647 1150 3233 529 
Q 2819 -91 2034 -91 
Q 1250 -91 836 529 
Q 422 1150 422 2328 
Q 422 3509 836 4129 
Q 1250 4750 2034 4750 
z
" transform="scale(0.015625)"/>
       </defs>
       <use xlink:href="#DejaVuSans-30"/>
      </g>
     </g>
    </g>
    <g id="xtick_2">
     <g id="line2d_2">
      <g>
       <use xlink:href="#m2a5b30d690" x="102.599586" y="307.584" style="stroke: #000000; stroke-width: 0.8"/>
      </g>
     </g>
     <g id="text_2">
      <!-- 2 -->
      <g transform="translate(99.418336 322.182437)scale(0.1 -0.1)">
       <defs>
        <path id="DejaVuSans-32" d="M 1228 531 
L 3431 531 
L 3431 0 
L 469 0 
L 469 531 
Q 828 903 1448 1529 
Q 2069 2156 2228 2338 
Q 2531 2678 2651 2914 
Q 2772 3150 2772 3378 
Q 2772 3750 2511 3984 
Q 2250 4219 1831 4219 
Q 1534 4219 1204 4116 
Q 875 4013 500 3803 
L 500 4441 
Q 881 4594 1212 4672 
Q 1544 4750 1819 4750 
Q 2544 4750 2975 4387 
Q 3406 4025 3406 3419 
Q 3406 3131 3298 2873 
Q 3191 2616 2906 2266 
Q 2828 2175 2409 1742 
Q 1991 1309 1228 531 
z
" transform="scale(0.015625)"/>
       </defs>
       <use xlink:href="#DejaVuSans-32"/>
      </g>
     </g>
    </g>
    <g id="xtick_3">
     <g id="line2d_3">
      <g>
       <use xlink:href="#m2a5b30d690" x="143.695098" y="307.584" style="stroke: #000000; stroke-width: 0.8"/>
      </g>
     </g>
     <g id="text_3">
      <!-- 4 -->
      <g transform="translate(140.513848 322.182437)scale(0.1 -0.1)">
       <defs>
        <path id="DejaVuSans-34" d="M 2419 4116 
L 825 1625 
L 2419 1625 
L 2419 4116 
z
M 2253 4666 
L 3047 4666 
L 3047 1625 
L 3713 1625 
L 3713 1100 
L 3047 1100 
L 3047 0 
L 2419 0 
L 2419 1100 
L 313 1100 
L 313 1709 
L 2253 4666 
z
" transform="scale(0.015625)"/>
       </defs>
       <use xlink:href="#DejaVuSans-34"/>
      </g>
     </g>
    </g>
    <g id="xtick_4">
     <g id="line2d_4">
      <g>
       <use xlink:href="#m2a5b30d690" x="184.79061" y="307.584" style="stroke: #000000; stroke-width: 0.8"/>
      </g>
     </g>
     <g id="text_4">
      <!-- 6 -->
      <g transform="translate(181.60936 322.182437)scale(0.1 -0.1)">
       <defs>
        <path id="DejaVuSans-36" d="M 2113 2584 
Q 1688 2584 1439 2293 
Q 1191 2003 1191 1497 
Q 1191 994 1439 701 
Q 1688 409 2113 409 
Q 2538 409 2786 701 
Q 3034 994 3034 1497 
Q 3034 2003 2786 2293 
Q 2538 2584 2113 2584 
z
M 3366 4563 
L 3366 3988 
Q 3128 4100 2886 4159 
Q 2644 4219 2406 4219 
Q 1781 4219 1451 3797 
Q 1122 3375 1075 2522 
Q 1259 2794 1537 2939 
Q 1816 3084 2150 3084 
Q 2853 3084 3261 2657 
Q 3669 2231 3669 1497 
Q 3669 778 3244 343 
Q 2819 -91 2113 -91 
Q 1303 -91 875 529 
Q 447 1150 447 2328 
Q 447 3434 972 4092 
Q 1497 4750 2381 4750 
Q 2619 4750 2861 4703 
Q 3103 4656 3366 4563 
z
" transform="scale(0.015625)"/>
       </defs>
       <use xlink:href="#DejaVuSans-36"/>
      </g>
     </g>
    </g>
    <g id="xtick_5">
     <g id="line2d_5">
      <g>
       <use xlink:href="#m2a5b30d690" x="225.886122" y="307.584" style="stroke: #000000; stroke-width: 0.8"/>
      </g>
     </g>
     <g id="text_5">
      <!-- 8 -->
      <g transform="translate(222.704872 322.182437)scale(0.1 -0.1)">
       <defs>
        <path id="DejaVuSans-38" d="M 2034 2216 
Q 1584 2216 1326 1975 
Q 1069 1734 1069 1313 
Q 1069 891 1326 650 
Q 1584 409 2034 409 
Q 2484 409 2743 651 
Q 3003 894 3003 1313 
Q 3003 1734 2745 1975 
Q 2488 2216 2034 2216 
z
M 1403 2484 
Q 997 2584 770 2862 
Q 544 3141 544 3541 
Q 544 4100 942 4425 
Q 1341 4750 2034 4750 
Q 2731 4750 3128 4425 
Q 3525 4100 3525 3541 
Q 3525 3141 3298 2862 
Q 3072 2584 2669 2484 
Q 3125 2378 3379 2068 
Q 3634 1759 3634 1313 
Q 3634 634 3220 271 
Q 2806 -91 2034 -91 
Q 1263 -91 848 271 
Q 434 634 434 1313 
Q 434 1759 690 2068 
Q 947 2378 1403 2484 
z
M 1172 3481 
Q 1172 3119 1398 2916 
Q 1625 2713 2034 2713 
Q 2441 2713 2670 2916 
Q 2900 3119 2900 3481 
Q 2900 3844 2670 4047 
Q 2441 4250 2034 4250 
Q 1625 4250 1398 4047 
Q 1172 3844 1172 3481 
z
" transform="scale(0.015625)"/>
       </defs>
       <use xlink:href="#DejaVuSans-38"/>
      </g>
     </g>
    </g>
    <g id="xtick_6">
     <g id="line2d_6">
      <g>
       <use xlink:href="#m2a5b30d690" x="266.981634" y="307.584" style="stroke: #000000; stroke-width: 0.8"/>
      </g>
     </g>
     <g id="text_6">
      <!-- 10 -->
      <g transform="translate(260.619134 322.182437)scale(0.1 -0.1)">
       <defs>
        <path id="DejaVuSans-31" d="M 794 531 
L 1825 531 
L 1825 4091 
L 703 3866 
L 703 4441 
L 1819 4666 
L 2450 4666 
L 2450 531 
L 3481 531 
L 3481 0 
L 794 0 
L 794 531 
z
" transform="scale(0.015625)"/>
       </defs>
       <use xlink:href="#DejaVuSans-31"/>
       <use xlink:href="#DejaVuSans-30" x="63.623047"/>
      </g>
     </g>
    </g>
    <g id="xtick_7">
     <g id="line2d_7">
      <g>
       <use xlink:href="#m2a5b30d690" x="308.077146" y="307.584" style="stroke: #000000; stroke-width: 0.8"/>
      </g>
     </g>
     <g id="text_7">
      <!-- 12 -->
      <g transform="translate(301.714646 322.182437)scale(0.1 -0.1)">
       <use xlink:href="#DejaVuSans-31"/>
       <use xlink:href="#DejaVuSans-32" x="63.623047"/>
      </g>
     </g>
    </g>
    <g id="xtick_8">
     <g id="line2d_8">
      <g>
       <use xlink:href="#m2a5b30d690" x="349.172658" y="307.584" style="stroke: #000000; stroke-width: 0.8"/>
      </g>
     </g>
     <g id="text_8">
      <!-- 14 -->
      <g transform="translate(342.810158 322.182437)scale(0.1 -0.1)">
       <use xlink:href="#DejaVuSans-31"/>
       <use xlink:href="#DejaVuSans-34" x="63.623047"/>
      </g>
     </g>
    </g>
    <g id="xtick_9">
     <g id="line2d_9">
      <g>
       <use xlink:href="#m2a5b30d690" x="390.26817" y="307.584" style="stroke: #000000; stroke-width: 0.8"/>
      </g>
     </g>
     <g id="text_9">
      <!-- 16 -->
      <g transform="translate(383.90567 322.182437)scale(0.1 -0.1)">
       <use xlink:href="#DejaVuSans-31"/>
       <use xlink:href="#DejaVuSans-36" x="63.623047"/>
      </g>
     </g>
    </g>
    <g id="text_10">
     <!-- Thread ID -->
     <g transform="translate(211.765469 335.860562)scale(0.1 -0.1)">
      <defs>
       <path id="DejaVuSans-54" d="M -19 4666 
L 3928 4666 
L 3928 4134 
L 2272 4134 
L 2272 0 
L 1638 0 
L 1638 4134 
L -19 4134 
L -19 4666 
z
" transform="scale(0.015625)"/>
       <path id="DejaVuSans-68" d="M 3513 2113 
L 3513 0 
L 2938 0 
L 2938 2094 
Q 2938 2591 2744 2837 
Q 2550 3084 2163 3084 
Q 1697 3084 1428 2787 
Q 1159 2491 1159 1978 
L 1159 0 
L 581 0 
L 581 4863 
L 1159 4863 
L 1159 2956 
Q 1366 3272 1645 3428 
Q 1925 3584 2291 3584 
Q 2894 3584 3203 3211 
Q 3513 2838 3513 2113 
z
" transform="scale(0.015625)"/>
       <path id="DejaVuSans-72" d="M 2631 2963 
Q 2534 3019 2420 3045 
Q 2306 3072 2169 3072 
Q 1681 3072 1420 2755 
Q 1159 2438 1159 1844 
L 1159 0 
L 581 0 
L 581 3500 
L 1159 3500 
L 1159 2956 
Q 1341 3275 1631 3429 
Q 1922 3584 2338 3584 
Q 2397 3584 2469 3576 
Q 2541 3569 2628 3553 
L 2631 2963 
z
" transform="scale(0.015625)"/>
       <path id="DejaVuSans-65" d="M 3597 1894 
L 3597 1613 
L 953 1613 
Q 991 1019 1311 708 
Q 1631 397 2203 397 
Q 2534 397 2845 478 
Q 3156 559 3463 722 
L 3463 178 
Q 3153 47 2828 -22 
Q 2503 -91 2169 -91 
Q 1331 -91 842 396 
Q 353 884 353 1716 
Q 353 2575 817 3079 
Q 1281 3584 2069 3584 
Q 2775 3584 3186 3129 
Q 3597 2675 3597 1894 
z
M 3022 2063 
Q 3016 2534 2758 2815 
Q 2500 3097 2075 3097 
Q 1594 3097 1305 2825 
Q 1016 2553 972 2059 
L 3022 2063 
z
" transform="scale(0.015625)"/>
       <path id="DejaVuSans-61" d="M 2194 1759 
Q 1497 1759 1228 1600 
Q 959 1441 959 1056 
Q 959 750 1161 570 
Q 1363 391 1709 391 
Q 2188 391 2477 730 
Q 2766 1069 2766 1631 
L 2766 1759 
L 2194 1759 
z
M 3341 1997 
L 3341 0 
L 2766 0 
L 2766 531 
Q 2569 213 2275 61 
Q 1981 -91 1556 -91 
Q 1019 -91 701 211 
Q 384 513 384 1019 
Q 384 1609 779 1909 
Q 1175 2209 1959 2209 
L 2766 2209 
L 2766 2266 
Q 2766 2663 2505 2880 
Q 2244 3097 1772 3097 
Q 1472 3097 1187 3025 
Q 903 2953 641 2809 
L 641 3341 
Q 956 3463 1253 3523 
Q 1550 3584 1831 3584 
Q 2591 3584 2966 3190 
Q 3341 2797 3341 1997 
z
" transform="scale(0.015625)"/>
       <path id="DejaVuSans-64" d="M 2906 2969 
L 2906 4863 
L 3481 4863 
L 3481 0 
L 2906 0 
L 2906 525 
Q 2725 213 2448 61 
Q 2172 -91 1784 -91 
Q 1150 -91 751 415 
Q 353 922 353 1747 
Q 353 2572 751 3078 
Q 1150 3584 1784 3584 
Q 2172 3584 2448 3432 
Q 2725 3281 2906 2969 
z
M 947 1747 
Q 947 1113 1208 752 
Q 1469 391 1925 391 
Q 2381 391 2643 752 
Q 2906 1113 2906 1747 
Q 2906 2381 2643 2742 
Q 2381 3103 1925 3103 
Q 1469 3103 1208 2742 
Q 947 2381 947 1747 
z
" transform="scale(0.015625)"/>
       <path id="DejaVuSans-20" transform="scale(0.015625)"/>
       <path id="DejaVuSans-49" d="M 628 4666 
L 1259 4666 
L 1259 0 
L 628 0 
L 628 4666 
z
" transform="scale(0.015625)"/>
       <path id="DejaVuSans-44" d="M 1259 4147 
L 1259 519 
L 2022 519 
Q 2988 519 3436 956 
Q 3884 1394 3884 2338 
Q 3884 3275 3436 3711 
Q 2988 4147 2022 4147 
L 1259 4147 
z
M 628 4666 
L 1925 4666 
Q 3281 4666 3915 4102 
Q 4550 3538 4550 2338 
Q 4550 1131 3912 565 
Q 3275 0 1925 0 
L 628 0 
L 628 4666 
z
" transform="scale(0.015625)"/>
      </defs>
      <use xlink:href="#DejaVuSans-54"/>
      <use xlink:href="#DejaVuSans-68" x="61.083984"/>
      <use xlink:href="#DejaVuSans-72" x="124.462891"/>
      <use xlink:href="#DejaVuSans-65" x="163.326172"/>
      <use xlink:href="#DejaVuSans-61" x="224.849609"/>
      <use xlink:href="#DejaVuSans-64" x="286.128906"/>
      <use xlink:href="#DejaVuSans-20" x="349.605469"/>
      <use xlink:href="#DejaVuSans-49" x="381.392578"/>
      <use xlink:href="#DejaVuSans-44" x="410.884766"/>
     </g>
    </g>
   </g>
   <g id="matplotlib.axis_2">
    <g id="ytick_1">
     <g id="line2d_10">
      <defs>
       <path id="m4a97b251a4" d="M 0 0 
L -3.5 0 
" style="stroke: #000000; stroke-width: 0.8"/>
      </defs>
      <g>
       <use xlink:href="#m4a97b251a4" x="57.6" y="307.584" style="stroke: #000000; stroke-width: 0.8"/>
      </g>
     </g>
     <g id="text_11">
      <!-- 0 -->
      <g transform="translate(44.2375 311.383219)scale(0.1 -0.1)">
       <use xlink:href="#DejaVuSans-30"/>
      </g>
     </g>
    </g>
    <g id="ytick_2">
     <g id="line2d_11">
      <g>
       <use xlink:href="#m4a97b251a4" x="57.6" y="262.227775" style="stroke: #000000; stroke-width: 0.8"/>
      </g>
     </g>
     <g id="text_12">
      <!-- 5000 -->
      <g transform="translate(25.15 266.026994)scale(0.1 -0.1)">
       <defs>
        <path id="DejaVuSans-35" d="M 691 4666 
L 3169 4666 
L 3169 4134 
L 1269 4134 
L 1269 2991 
Q 1406 3038 1543 3061 
Q 1681 3084 1819 3084 
Q 2600 3084 3056 2656 
Q 3513 2228 3513 1497 
Q 3513 744 3044 326 
Q 2575 -91 1722 -91 
Q 1428 -91 1123 -41 
Q 819 9 494 109 
L 494 744 
Q 775 591 1075 516 
Q 1375 441 1709 441 
Q 2250 441 2565 725 
Q 2881 1009 2881 1497 
Q 2881 1984 2565 2268 
Q 2250 2553 1709 2553 
Q 1456 2553 1204 2497 
Q 953 2441 691 2322 
L 691 4666 
z
" transform="scale(0.015625)"/>
       </defs>
       <use xlink:href="#DejaVuSans-35"/>
       <use xlink:href="#DejaVuSans-30" x="63.623047"/>
       <use xlink:href="#DejaVuSans-30" x="127.246094"/>
       <use xlink:href="#DejaVuSans-30" x="190.869141"/>
      </g>
     </g>
    </g>
    <g id="ytick_3">
     <g id="line2d_12">
      <g>
       <use xlink:href="#m4a97b251a4" x="57.6" y="216.871551" style="stroke: #000000; stroke-width: 0.8"/>
      </g>
     </g>
     <g id="text_13">
      <!-- 10000 -->
      <g transform="translate(18.7875 220.67077)scale(0.1 -0.1)">
       <use xlink:href="#DejaVuSans-31"/>
       <use xlink:href="#DejaVuSans-30" x="63.623047"/>
       <use xlink:href="#DejaVuSans-30" x="127.246094"/>
       <use xlink:href="#DejaVuSans-30" x="190.869141"/>
       <use xlink:href="#DejaVuSans-30" x="254.492188"/>
      </g>
     </g>
    </g>
    <g id="ytick_4">
     <g id="line2d_13">
      <g>
       <use xlink:href="#m4a97b251a4" x="57.6" y="171.515326" style="stroke: #000000; stroke-width: 0.8"/>
      </g>
     </g>
     <g id="text_14">
      <!-- 15000 -->
      <g transform="translate(18.7875 175.314545)scale(0.1 -0.1)">
       <use xlink:href="#DejaVuSans-31"/>
       <use xlink:href="#DejaVuSans-35" x="63.623047"/>
       <use xlink:href="#DejaVuSans-30" x="127.246094"/>
       <use xlink:href="#DejaVuSans-30" x="190.869141"/>
       <use xlink:href="#DejaVuSans-30" x="254.492188"/>
      </g>
     </g>
    </g>
    <g id="ytick_5">
     <g id="line2d_14">
      <g>
       <use xlink:href="#m4a97b251a4" x="57.6" y="126.159102" style="stroke: #000000; stroke-width: 0.8"/>
      </g>
     </g>
     <g id="text_15">
      <!-- 20000 -->
      <g transform="translate(18.7875 129.95832)scale(0.1 -0.1)">
       <use xlink:href="#DejaVuSans-32"/>
       <use xlink:href="#DejaVuSans-30" x="63.623047"/>
       <use xlink:href="#DejaVuSans-30" x="127.246094"/>
       <use xlink:href="#DejaVuSans-30" x="190.869141"/>
       <use xlink:href="#DejaVuSans-30" x="254.492188"/>
      </g>
     </g>
    </g>
    <g id="ytick_6">
     <g id="line2d_15">
      <g>
       <use xlink:href="#m4a97b251a4" x="57.6" y="80.802877" style="stroke: #000000; stroke-width: 0.8"/>
      </g>
     </g>
     <g id="text_16">
      <!-- 25000 -->
      <g transform="translate(18.7875 84.602096)scale(0.1 -0.1)">
       <use xlink:href="#DejaVuSans-32"/>
       <use xlink:href="#DejaVuSans-35" x="63.623047"/>
       <use xlink:href="#DejaVuSans-30" x="127.246094"/>
       <use xlink:href="#DejaVuSans-30" x="190.869141"/>
       <use xlink:href="#DejaVuSans-30" x="254.492188"/>
      </g>
     </g>
    </g>
    <g id="text_17">
     <!-- Number of lock acquisations -->
     <g transform="translate(12.707812 245.689719)rotate(-90)scale(0.1 -0.1)">
      <defs>
       <path id="DejaVuSans-4e" d="M 628 4666 
L 1478 4666 
L 3547 763 
L 3547 4666 
L 4159 4666 
L 4159 0 
L 3309 0 
L 1241 3903 
L 1241 0 
L 628 0 
L 628 4666 
z
" transform="scale(0.015625)"/>
       <path id="DejaVuSans-75" d="M 544 1381 
L 544 3500 
L 1119 3500 
L 1119 1403 
Q 1119 906 1312 657 
Q 1506 409 1894 409 
Q 2359 409 2629 706 
Q 2900 1003 2900 1516 
L 2900 3500 
L 3475 3500 
L 3475 0 
L 2900 0 
L 2900 538 
Q 2691 219 2414 64 
Q 2138 -91 1772 -91 
Q 1169 -91 856 284 
Q 544 659 544 1381 
z
M 1991 3584 
L 1991 3584 
z
" transform="scale(0.015625)"/>
       <path id="DejaVuSans-6d" d="M 3328 2828 
Q 3544 3216 3844 3400 
Q 4144 3584 4550 3584 
Q 5097 3584 5394 3201 
Q 5691 2819 5691 2113 
L 5691 0 
L 5113 0 
L 5113 2094 
Q 5113 2597 4934 2840 
Q 4756 3084 4391 3084 
Q 3944 3084 3684 2787 
Q 3425 2491 3425 1978 
L 3425 0 
L 2847 0 
L 2847 2094 
Q 2847 2600 2669 2842 
Q 2491 3084 2119 3084 
Q 1678 3084 1418 2786 
Q 1159 2488 1159 1978 
L 1159 0 
L 581 0 
L 581 3500 
L 1159 3500 
L 1159 2956 
Q 1356 3278 1631 3431 
Q 1906 3584 2284 3584 
Q 2666 3584 2933 3390 
Q 3200 3197 3328 2828 
z
" transform="scale(0.015625)"/>
       <path id="DejaVuSans-62" d="M 3116 1747 
Q 3116 2381 2855 2742 
Q 2594 3103 2138 3103 
Q 1681 3103 1420 2742 
Q 1159 2381 1159 1747 
Q 1159 1113 1420 752 
Q 1681 391 2138 391 
Q 2594 391 2855 752 
Q 3116 1113 3116 1747 
z
M 1159 2969 
Q 1341 3281 1617 3432 
Q 1894 3584 2278 3584 
Q 2916 3584 3314 3078 
Q 3713 2572 3713 1747 
Q 3713 922 3314 415 
Q 2916 -91 2278 -91 
Q 1894 -91 1617 61 
Q 1341 213 1159 525 
L 1159 0 
L 581 0 
L 581 4863 
L 1159 4863 
L 1159 2969 
z
" transform="scale(0.015625)"/>
       <path id="DejaVuSans-6f" d="M 1959 3097 
Q 1497 3097 1228 2736 
Q 959 2375 959 1747 
Q 959 1119 1226 758 
Q 1494 397 1959 397 
Q 2419 397 2687 759 
Q 2956 1122 2956 1747 
Q 2956 2369 2687 2733 
Q 2419 3097 1959 3097 
z
M 1959 3584 
Q 2709 3584 3137 3096 
Q 3566 2609 3566 1747 
Q 3566 888 3137 398 
Q 2709 -91 1959 -91 
Q 1206 -91 779 398 
Q 353 888 353 1747 
Q 353 2609 779 3096 
Q 1206 3584 1959 3584 
z
" transform="scale(0.015625)"/>
       <path id="DejaVuSans-66" d="M 2375 4863 
L 2375 4384 
L 1825 4384 
Q 1516 4384 1395 4259 
Q 1275 4134 1275 3809 
L 1275 3500 
L 2222 3500 
L 2222 3053 
L 1275 3053 
L 1275 0 
L 697 0 
L 697 3053 
L 147 3053 
L 147 3500 
L 697 3500 
L 697 3744 
Q 697 4328 969 4595 
Q 1241 4863 1831 4863 
L 2375 4863 
z
" transform="scale(0.015625)"/>
       <path id="DejaVuSans-6c" d="M 603 4863 
L 1178 4863 
L 1178 0 
L 603 0 
L 603 4863 
z
" transform="scale(0.015625)"/>
       <path id="DejaVuSans-63" d="M 3122 3366 
L 3122 2828 
Q 2878 2963 2633 3030 
Q 2388 3097 2138 3097 
Q 1578 3097 1268 2742 
Q 959 2388 959 1747 
Q 959 1106 1268 751 
Q 1578 397 2138 397 
Q 2388 397 2633 464 
Q 2878 531 3122 666 
L 3122 134 
Q 2881 22 2623 -34 
Q 2366 -91 2075 -91 
Q 1284 -91 818 406 
Q 353 903 353 1747 
Q 353 2603 823 3093 
Q 1294 3584 2113 3584 
Q 2378 3584 2631 3529 
Q 2884 3475 3122 3366 
z
" transform="scale(0.015625)"/>
       <path id="DejaVuSans-6b" d="M 581 4863 
L 1159 4863 
L 1159 1991 
L 2875 3500 
L 3609 3500 
L 1753 1863 
L 3688 0 
L 2938 0 
L 1159 1709 
L 1159 0 
L 581 0 
L 581 4863 
z
" transform="scale(0.015625)"/>
       <path id="DejaVuSans-71" d="M 947 1747 
Q 947 1113 1208 752 
Q 1469 391 1925 391 
Q 2381 391 2643 752 
Q 2906 1113 2906 1747 
Q 2906 2381 2643 2742 
Q 2381 3103 1925 3103 
Q 1469 3103 1208 2742 
Q 947 2381 947 1747 
z
M 2906 525 
Q 2725 213 2448 61 
Q 2172 -91 1784 -91 
Q 1150 -91 751 415 
Q 353 922 353 1747 
Q 353 2572 751 3078 
Q 1150 3584 1784 3584 
Q 2172 3584 2448 3432 
Q 2725 3281 2906 2969 
L 2906 3500 
L 3481 3500 
L 3481 -1331 
L 2906 -1331 
L 2906 525 
z
" transform="scale(0.015625)"/>
       <path id="DejaVuSans-69" d="M 603 3500 
L 1178 3500 
L 1178 0 
L 603 0 
L 603 3500 
z
M 603 4863 
L 1178 4863 
L 1178 4134 
L 603 4134 
L 603 4863 
z
" transform="scale(0.015625)"/>
       <path id="DejaVuSans-73" d="M 2834 3397 
L 2834 2853 
Q 2591 2978 2328 3040 
Q 2066 3103 1784 3103 
Q 1356 3103 1142 2972 
Q 928 2841 928 2578 
Q 928 2378 1081 2264 
Q 1234 2150 1697 2047 
L 1894 2003 
Q 2506 1872 2764 1633 
Q 3022 1394 3022 966 
Q 3022 478 2636 193 
Q 2250 -91 1575 -91 
Q 1294 -91 989 -36 
Q 684 19 347 128 
L 347 722 
Q 666 556 975 473 
Q 1284 391 1588 391 
Q 1994 391 2212 530 
Q 2431 669 2431 922 
Q 2431 1156 2273 1281 
Q 2116 1406 1581 1522 
L 1381 1569 
Q 847 1681 609 1914 
Q 372 2147 372 2553 
Q 372 3047 722 3315 
Q 1072 3584 1716 3584 
Q 2034 3584 2315 3537 
Q 2597 3491 2834 3397 
z
" transform="scale(0.015625)"/>
       <path id="DejaVuSans-74" d="M 1172 4494 
L 1172 3500 
L 2356 3500 
L 2356 3053 
L 1172 3053 
L 1172 1153 
Q 1172 725 1289 603 
Q 1406 481 1766 481 
L 2356 481 
L 2356 0 
L 1766 0 
Q 1100 0 847 248 
Q 594 497 594 1153 
L 594 3053 
L 172 3053 
L 172 3500 
L 594 3500 
L 594 4494 
L 1172 4494 
z
" transform="scale(0.015625)"/>
       <path id="DejaVuSans-6e" d="M 3513 2113 
L 3513 0 
L 2938 0 
L 2938 2094 
Q 2938 2591 2744 2837 
Q 2550 3084 2163 3084 
Q 1697 3084 1428 2787 
Q 1159 2491 1159 1978 
L 1159 0 
L 581 0 
L 581 3500 
L 1159 3500 
L 1159 2956 
Q 1366 3272 1645 3428 
Q 1925 3584 2291 3584 
Q 2894 3584 3203 3211 
Q 3513 2838 3513 2113 
z
" transform="scale(0.015625)"/>
      </defs>
      <use xlink:href="#DejaVuSans-4e"/>
      <use xlink:href="#DejaVuSans-75" x="74.804688"/>
      <use xlink:href="#DejaVuSans-6d" x="138.183594"/>
      <use xlink:href="#DejaVuSans-62" x="235.595703"/>
      <use xlink:href="#DejaVuSans-65" x="299.072266"/>
      <use xlink:href="#DejaVuSans-72" x="360.595703"/>
      <use xlink:href="#DejaVuSans-20" x="401.708984"/>
      <use xlink:href="#DejaVuSans-6f" x="433.496094"/>
      <use xlink:href="#DejaVuSans-66" x="494.677734"/>
      <use xlink:href="#DejaVuSans-20" x="529.882812"/>
      <use xlink:href="#DejaVuSans-6c" x="561.669922"/>
      <use xlink:href="#DejaVuSans-6f" x="589.453125"/>
      <use xlink:href="#DejaVuSans-63" x="650.634766"/>
      <use xlink:href="#DejaVuSans-6b" x="705.615234"/>
      <use xlink:href="#DejaVuSans-20" x="763.525391"/>
      <use xlink:href="#DejaVuSans-61" x="795.3125"/>
      <use xlink:href="#DejaVuSans-63" x="856.591797"/>
      <use xlink:href="#DejaVuSans-71" x="911.572266"/>
      <use xlink:href="#DejaVuSans-75" x="975.048828"/>
      <use xlink:href="#DejaVuSans-69" x="1038.427734"/>
      <use xlink:href="#DejaVuSans-73" x="1066.210938"/>
      <use xlink:href="#DejaVuSans-61" x="1118.310547"/>
      <use xlink:href="#DejaVuSans-74" x="1179.589844"/>
      <use xlink:href="#DejaVuSans-69" x="1218.798828"/>
      <use xlink:href="#DejaVuSans-6f" x="1246.582031"/>
      <use xlink:href="#DejaVuSans-6e" x="1307.763672"/>
      <use xlink:href="#DejaVuSans-73" x="1371.142578"/>
     </g>
    </g>
   </g>
   <g id="patch_83">
    <path d="M 57.6 307.584 
L 57.6 41.472 
" style="fill: none; stroke: #000000; stroke-width: 0.8; stroke-linejoin: miter; stroke-linecap: square"/>
   </g>
   <g id="patch_84">
    <path d="M 414.72 307.584 
L 414.72 41.472 
" style="fill: none; stroke: #000000; stroke-width: 0.8; stroke-linejoin: miter; stroke-linecap: square"/>
   </g>
   <g id="patch_85">
    <path d="M 57.6 307.584 
L 414.72 307.584 
" style="fill: none; stroke: #000000; stroke-width: 0.8; stroke-linejoin: miter; stroke-linecap: square"/>
   </g>
   <g id="patch_86">
    <path d="M 57.6 41.472 
L 414.72 41.472 
" style="fill: none; stroke: #000000; stroke-width: 0.8; stroke-linejoin: miter; stroke-linecap: square"/>
   </g>
  </g>
 </g>
 <defs>
  <clipPath id="p8ffc304c90">
   <rect x="57.6" y="41.472" width="357.12" height="266.112"/>
  </clipPath>
 </defs>
</svg>
